<?xml version="1.0" encoding="UTF-8"?>
<svg width="752pt" height="752pt" version="1.1" viewBox="0 0 752 752" xmlns="http://www.w3.org/2000/svg">
 <g fill="#c53535">
  <path d="m376 571.36c-51.809 0-101.5-20.582-138.13-57.219-36.637-36.637-57.219-86.324-57.219-138.14 0-51.809 20.582-101.5 57.219-138.13 36.637-36.637 86.324-57.219 138.13-57.219 51.812 0 101.5 20.582 138.14 57.219 36.637 36.637 57.219 86.324 57.219 138.13-0.066407 51.793-20.668 101.45-57.289 138.07s-86.273 57.223-138.07 57.289zm0-355.19c-42.391 0-83.043 16.84-113.02 46.812-29.973 29.977-46.812 70.629-46.812 113.02s16.84 83.047 46.812 113.02c29.977 29.977 70.629 46.816 113.02 46.816s83.047-16.84 113.02-46.816c29.977-29.973 46.816-70.629 46.816-113.02-0.050782-42.375-16.906-83-46.867-112.96-29.965-29.965-70.594-46.82-112.97-46.867z"/>
  <path d="m429.28 447.04c-4.707 0.003907-9.2266-1.8711-12.547-5.2109l-53.277-53.277c-3.332-3.3281-5.207-7.8398-5.2109-12.551v-106.55c0-6.3438 3.3867-12.207 8.8789-15.379 5.4961-3.1719 12.266-3.1719 17.762 0 5.4922 3.1719 8.8789 9.0352 8.8789 15.379v99.203l48.066 48.082c3.3281 3.3281 5.1953 7.8438 5.1953 12.551s-1.8711 9.2227-5.1992 12.551c-3.3242 3.3281-7.8398 5.2031-12.547 5.207z"/>
 </g>
</svg>
