<svg xmlns="http://www.w3.org/2000/svg" width="48" height="48" fill="none" viewBox="0 0 48 48">
  <path fill="#fff" d="M9 42.95c-1.1 0-2.034-.383-2.8-1.15-.767-.767-1.15-1.7-1.15-2.8V17.25c0-1.1.383-2.042 1.15-2.825.766-.783 1.7-1.175 2.8-1.175h4.3V9c0-1.1.383-2.042 1.15-2.825.767-.783 1.7-1.175 2.8-1.175h13.5c1.1 0 2.041.392 2.825 1.175C34.358 6.958 34.75 7.9 34.75 9v12.5H39c1.1 0 2.041.392 2.825 1.175C42.608 23.458 43 24.4 43 25.5V39c0 1.1-.392 2.033-1.175 2.8-.784.767-1.725 1.15-2.825 1.15H26.65v-9.2h-5.3v9.2H9ZM9 39h5.25v-5.25H9V39Zm0-8.25h5.25V25.5H9v5.25Zm0-8.25h5.25v-5.25H9v5.25Zm8.25 8.25h5.25V25.5h-5.25v5.25Zm0-8.25h5.25v-5.25h-5.25v5.25Zm0-8.25h5.25V9h-5.25v5.25Zm8.25 16.5h5.25V25.5H25.5v5.25Zm0-8.25h5.25v-5.25H25.5v5.25Zm0-8.25h5.25V9H25.5v5.25ZM33.75 39H39v-5.25h-5.25V39Zm0-8.25H39V25.5h-5.25v5.25Z"/>
</svg>
