<svg xmlns="http://www.w3.org/2000/svg" width="48" height="48" fill="none" viewBox="0 0 48 48">
  <path fill="#fff" d="m24.8 45.2-.35-6.1h-2.1c-4.834-.233-8.925-2.117-12.275-5.65-3.35-3.533-5.025-7.717-5.025-12.55 0-5.033 1.783-9.325 5.35-12.875C13.966 4.475 18.283 2.7 23.35 2.7c2.5 0 4.816.45 6.95 1.35 2.133.9 3.991 2.159 5.575 3.775 1.583 1.617 2.833 3.533 3.75 5.75C40.54 15.792 41 18.2 41 20.8c0 4.867-1.483 9.475-4.45 13.825S29.667 42.5 24.8 45.2Zm-1.4-12.45c.6 0 1.108-.217 1.525-.65.416-.433.625-.95.625-1.55 0-.6-.209-1.108-.625-1.525A2.075 2.075 0 0 0 23.4 28.4c-.633 0-1.159.209-1.575.625a2.075 2.075 0 0 0-.625 1.525c0 .6.208 1.117.625 1.55.416.433.942.65 1.575.65Zm-.1-7c.366 0 .7-.133 1-.4.3-.267.5-.633.6-1.1.133-.433.358-.866.675-1.3.317-.433.758-.916 1.325-1.45.933-.933 1.583-1.775 1.95-2.525.366-.75.55-1.591.55-2.525 0-1.6-.508-2.908-1.525-3.925S25.433 11 23.6 11c-1.234 0-2.359.284-3.375.85a6.972 6.972 0 0 0-2.475 2.3c-.267.367-.308.75-.125 1.15.183.4.475.683.875.85a1.42 1.42 0 0 0 1.05 0c.366-.133.683-.366.95-.7.366-.5.8-.858 1.3-1.075a3.98 3.98 0 0 1 1.6-.325c.933 0 1.658.217 2.175.65.517.434.775 1.017.775 1.75 0 .567-.184 1.175-.55 1.825-.367.65-.983 1.425-1.85 2.325-.7.7-1.217 1.308-1.55 1.825-.333.517-.534 1.125-.6 1.825-.067.4.05.75.35 1.05.3.3.683.45 1.15.45Z"/>
</svg>
