<?xml version="1.0" encoding="UTF-8"?>
<svg width="752pt" height="752pt" version="1.1" viewBox="0 0 752 752" xmlns="http://www.w3.org/2000/svg">
 <defs>
  <clipPath id="a">
   <path d="m222 139.21h308v473.58h-308z"/>
  </clipPath>
 </defs>
 <g clip-path="url(#a)">
  <path d="m433.13 471.53 67.262-104.71c29.672-46.176 31.672-102.48 5.3281-150.66s-74.812-76.957-129.72-76.957-103.37 28.785-129.71 76.957c-26.344 48.098-24.344 104.41 5.3281 150.66l67.188 104.63c-58.902 10.434-96.418 36.629-96.418 68.227 0.074219 42.324 64.602 73.109 153.62 73.109 89.02 0 153.54-30.781 153.54-73.109 0.003906-31.746-37.441-57.867-96.414-68.152zm6.6562-192.84c0 35.074-28.637 63.637-63.785 63.637s-63.785-28.562-63.785-63.637c0-35.148 28.637-63.785 63.785-63.785s63.785 28.562 63.785 63.785zm-74.293 265.43c2.293 3.625 6.2148 5.7734 10.508 5.7734 4.3672 0 8.2891-2.1445 10.508-5.6992l25.309-39.441c54.461 6.4375 81.766 25.824 81.766 34.926 0 11.098-40.031 37.148-117.58 37.148s-117.58-26.047-117.58-37.148c0-9.1016 27.305-28.414 81.766-34.926z" fill="#c53535"/>
 </g>
</svg>
