<svg xmlns="http://www.w3.org/2000/svg" width="48" height="48" fill="none" viewBox="0 0 48 48">
  <path fill="#fff" d="M31.9 32.35c-.4-.4-.6-.875-.6-1.425s.2-1.008.6-1.375L35.45 26h-15.1c-.533 0-.992-.192-1.375-.575-.383-.383-.575-.858-.575-1.425 0-.567.192-1.042.575-1.425A1.876 1.876 0 0 1 20.35 22h15l-3.6-3.6c-.367-.333-.55-.775-.55-1.325 0-.55.2-1.025.6-1.425.4-.367.883-.55 1.45-.55s1.033.2 1.4.6l7 6.95c.2.2.342.425.425.675a2.219 2.219 0 0 1 0 1.475c-.083.233-.225.45-.425.65L34.7 32.4c-.367.333-.817.5-1.35.5-.533 0-1.017-.183-1.45-.55ZM8.95 42.7c-1.067 0-1.992-.392-2.775-1.175C5.392 40.742 5 39.817 5 38.75V9.25c0-1.1.392-2.042 1.175-2.825.783-.783 1.708-1.175 2.775-1.175h12.8c.533 0 .992.2 1.375.6.383.4.575.883.575 1.45 0 .533-.192.992-.575 1.375a1.876 1.876 0 0 1-1.375.575H8.95v29.5h12.8c.533 0 .992.192 1.375.575.383.383.575.858.575 1.425 0 .533-.192.992-.575 1.375a1.876 1.876 0 0 1-1.375.575H8.95Z"/>
</svg>
