<svg xmlns="http://www.w3.org/2000/svg" width="48" height="48" fill="none" viewBox="0 0 48 48">
  <path fill="#fff" d="M27.45 44.7h-6.9c-.5 0-.95-.15-1.35-.45-.4-.3-.633-.7-.7-1.2l-.75-4.85a12.25 12.25 0 0 1-1.725-.825A10.343 10.343 0 0 1 14.45 36.3L10 38.4a1.775 1.775 0 0 1-1.425.1 2.027 2.027 0 0 1-1.125-.95l-3.5-6.25a1.747 1.747 0 0 1-.225-1.375A2.25 2.25 0 0 1 4.5 28.7l4.15-3a3.83 3.83 0 0 1-.125-.85A17.43 17.43 0 0 1 8.5 24c0-.233.008-.517.025-.85a3.83 3.83 0 0 1 .125-.85L4.5 19.25c-.4-.3-.658-.7-.775-1.2-.117-.5-.042-.95.225-1.35l3.5-6.25a2.078 2.078 0 0 1 1.125-.9c.483-.167.958-.15 1.425.05l4.5 2.1a9.65 9.65 0 0 1 1.55-1.05 9.169 9.169 0 0 1 1.7-.75l.75-4.95c.067-.5.3-.908.7-1.225.4-.317.85-.475 1.35-.475h6.9c.5 0 .95.158 1.35.475.4.317.633.725.7 1.225l.75 4.9c.534.2 1.108.458 1.725.775A7.06 7.06 0 0 1 33.55 11.7L38 9.6c.467-.2.942-.225 1.425-.075.483.15.858.458 1.125.925l3.55 6.2c.267.433.342.9.225 1.4-.117.5-.392.9-.825 1.2l-4.15 2.95c.033.267.067.567.1.9.033.333.05.633.05.9s-.017.558-.05.875c-.033.317-.067.608-.1.875l4.15 2.95c.4.333.658.742.775 1.225.117.483.059.942-.175 1.375l-3.55 6.25a2.027 2.027 0 0 1-1.125.95A1.775 1.775 0 0 1 38 38.4l-4.5-2.1c-.433.367-.941.733-1.525 1.1a6.93 6.93 0 0 1-1.725.8l-.75 4.85c-.067.5-.3.9-.7 1.2-.4.3-.85.45-1.35.45Zm-3.5-14.2c1.8 0 3.334-.633 4.6-1.9 1.267-1.267 1.9-2.8 1.9-4.6 0-1.8-.633-3.333-1.9-4.6-1.267-1.267-2.8-1.9-4.6-1.9-1.8 0-3.333.633-4.6 1.9-1.267 1.267-1.9 2.8-1.9 4.6 0 1.8.634 3.333 1.9 4.6 1.267 1.267 2.8 1.9 4.6 1.9Z"/>
</svg>
