<?xml version="1.0" encoding="UTF-8"?>
<svg width="752pt" height="752pt" version="1.1" viewBox="0 0 752 752" xmlns="http://www.w3.org/2000/svg">
 <g fill="#fff" fill-rule="evenodd">
  <path d="m376.04 274.75c-71.625 0-129.89 58.27-129.89 129.89s58.273 129.85 129.89 129.85c71.578 0 129.85-58.223 129.85-129.85 0-5.2305-4.2422-9.4688-9.4727-9.4688h-110.91v-110.95c0-5.2305-4.2383-9.4727-9.4688-9.4727z"/>
  <path d="m375.11 167.62c-9.6914 0-18.539 1.4492-25.75 4.1445-3.6055 1.3477-6.8789 2.9297-9.7656 5.4766-2.8867 2.5469-5.625 6.625-5.625 11.691s2.7383 9.1445 5.625 11.691c2.8867 2.5469 6.1602 4.2773 9.7656 5.625 3.6797 1.375 7.7227 2.4297 12.137 3.1094l-8.1406 16.871c-88.543 11.168-157.17 86.98-157.17 178.48 0 99.176 80.59 179.66 179.81 179.66 99.176 0 179.81-80.488 179.81-179.66 0-91.516-68.645-167.33-157.17-178.48l-8.1406-16.871c4.4023-0.67969 8.4648-1.7344 12.137-3.1094 3.6055-1.3477 6.8789-3.0781 9.7695-5.625 2.8867-2.5469 5.7734-6.6289 5.7734-11.691 0-5.0664-2.8867-9.1445-5.7734-11.691-2.8867-2.5469-6.1641-4.1289-9.7695-5.4766-7.2109-2.6953-15.91-4.1445-25.602-4.1445zm0.88672 76.219c88.938 0 160.87 71.93 160.87 160.87 0 88.938-71.93 160.72-160.87 160.72-88.988 0-160.87-71.781-160.87-160.72 0-88.938 71.883-160.87 160.87-160.87z"/>
 </g>
</svg>
